<?xml version="1.0" encoding="utf-8"?>
<!-- Generator: Adobe Illustrator 22.0.0, SVG Export Plug-In . SVG Version: 6.00 Build 0)  -->
<svg version="1.1" id="Layer_1" xmlns="http://www.w3.org/2000/svg" xmlns:xlink="http://www.w3.org/1999/xlink" x="0px" y="0px"
	 viewBox="0 0 600 300" style="enable-background:new 0 0 600 300;" xml:space="preserve">
<style type="text/css">
	.st0{fill:#41B883;}
	.st1{fill:#35495E;}
	.st2{opacity:0.3;fill:#41B883;enable-background:new    ;}
</style>
<g>
	<g>
		<path class="st0" d="M41.2,262.8c-0.6-0.6-0.9-1.4-0.9-2.5v-30.8c0-1,0.3-1.8,0.9-2.4c0.6-0.6,1.4-0.8,2.4-0.8h13c4,0,7.1,1,9.3,3
			s3.3,4.8,3.3,8.3s-1.1,6.4-3.3,8.4c-2.2,2-5.3,3-9.3,3H47v11.3c0,1.1-0.3,1.9-0.9,2.5c-0.6,0.6-1.4,0.9-2.5,0.9
			C42.6,263.7,41.8,263.4,41.2,262.8z M55.6,243.8c4.7,0,7-2,7-6.1s-2.3-6.1-7-6.1H47v12.2L55.6,243.8L55.6,243.8z"/>
		<path class="st0" d="M129.6,261c0,0.8-0.3,1.5-1,2c-0.6,0.5-1.4,0.8-2.3,0.8c-0.6,0-1.1-0.1-1.6-0.4s-0.9-0.7-1.3-1.2l-7-10.6
			c-0.7-1.1-1.4-1.9-2.2-2.4s-1.8-0.7-3.1-0.7h-5.2v11.8c0,1.1-0.3,1.9-0.9,2.5s-1.4,0.9-2.4,0.9s-1.8-0.3-2.4-0.9s-0.9-1.4-0.9-2.5
			v-30.8c0-1,0.3-1.8,0.9-2.4c0.6-0.6,1.4-0.8,2.4-0.8h13.2c4.2,0,7.4,0.9,9.6,2.8c2.2,1.9,3.3,4.6,3.3,8.1c0,2.9-0.8,5.2-2.4,7.1
			s-3.9,3-6.9,3.6c1,0.2,1.9,0.7,2.7,1.3c0.8,0.6,1.5,1.5,2.3,2.6l4.8,7.3C129.4,259.8,129.6,260.4,129.6,261z M120.4,241.8
			c1.2-1,1.8-2.4,1.8-4.5c0-2-0.6-3.5-1.8-4.5c-1.2-0.9-3.1-1.4-5.6-1.4H106v11.7h8.8C117.3,243.3,119.2,242.8,120.4,241.8z"/>
		<path class="st0" d="M193.6,260.7c0,0.8-0.3,1.5-1,2.1s-1.4,0.8-2.2,0.8c-0.6,0-1.1-0.2-1.6-0.4c-0.5-0.3-0.9-0.8-1.2-1.4
			l-3.2-7.1H166l-3.2,7.1c-0.3,0.6-0.7,1.1-1.2,1.4s-1,0.4-1.6,0.4c-0.8,0-1.5-0.3-2.2-0.8c-0.7-0.6-1-1.2-1-2.1
			c0-0.5,0.1-0.9,0.3-1.4l14.5-31.2c0.3-0.7,0.8-1.2,1.4-1.6c0.6-0.4,1.3-0.6,2.1-0.6c0.7,0,1.4,0.2,2.1,0.6
			c0.6,0.4,1.1,0.9,1.4,1.6l14.6,31.2C193.5,259.8,193.6,260.3,193.6,260.7z M168.3,249.4h13.9l-7-15.6L168.3,249.4z"/>
		<path class="st0" d="M252,244c0.5,0.5,0.7,1.1,0.7,1.9v11.3c0,1.6-0.2,2.8-0.6,3.4c-0.4,0.7-1.3,1.2-2.6,1.6
			c-1.4,0.5-3,0.9-4.9,1.2c-1.9,0.3-3.7,0.4-5.4,0.4c-3.8,0-7.1-0.8-10-2.3c-2.8-1.5-5-3.7-6.5-6.6s-2.2-6.3-2.2-10.2
			s0.7-7.3,2.2-10.1c1.5-2.9,3.6-5.1,6.3-6.6s6-2.3,9.7-2.3c5,0,9,1.3,12.2,4c0.4,0.4,0.7,0.8,0.9,1.2s0.3,0.8,0.3,1.4
			c0,0.8-0.2,1.4-0.6,1.9s-0.9,0.8-1.5,0.8c-0.4,0-0.7-0.1-1.1-0.2c-0.3-0.1-0.7-0.3-1.1-0.6c-1.5-1.1-3-1.9-4.3-2.3
			c-1.3-0.4-2.8-0.7-4.5-0.7c-3.8,0-6.7,1.1-8.7,3.4c-1.9,2.3-2.9,5.6-2.9,10.1c0,9.1,4,13.7,12,13.7c2.4,0,4.8-0.3,7.2-1v-9.3h-6
			c-0.8,0-1.5-0.2-2-0.6c-0.5-0.4-0.7-1-0.7-1.8s0.2-1.4,0.7-1.8c0.5-0.4,1.1-0.6,2-0.6h9.3C250.9,243.3,251.5,243.6,252,244z"/>
		<path class="st0" d="M320,226.9c0.6,0.6,0.9,1.4,0.9,2.4v31.2c0,1-0.3,1.8-0.8,2.3c-0.6,0.6-1.3,0.8-2.2,0.8
			c-0.9,0-1.6-0.3-2.2-0.8c-0.5-0.6-0.8-1.3-0.8-2.3v-21.7l-9,17c-0.4,0.8-0.9,1.3-1.4,1.7s-1.1,0.6-1.7,0.6c-0.7,0-1.2-0.2-1.7-0.5
			c-0.5-0.4-0.9-0.9-1.4-1.7l-9-16.7v21.4c0,0.9-0.3,1.7-0.8,2.3c-0.5,0.6-1.3,0.9-2.2,0.9c-0.9,0-1.6-0.3-2.2-0.8
			c-0.5-0.6-0.8-1.3-0.8-2.3v-31.2c0-1,0.3-1.8,0.9-2.4c0.6-0.6,1.4-0.9,2.3-0.9c1.4,0,2.4,0.8,3.2,2.3l11.7,22.3l11.6-22.3
			c0.8-1.5,1.8-2.3,3.1-2.3C318.6,226,319.4,226.3,320,226.9z"/>
		<path class="st0" d="M387.1,260.7c0,0.8-0.3,1.5-1,2.1s-1.4,0.8-2.2,0.8c-0.6,0-1.1-0.2-1.6-0.4c-0.5-0.3-0.9-0.8-1.2-1.4
			l-3.2-7.1h-18.5l-3.2,7.1c-0.3,0.6-0.7,1.1-1.2,1.4s-1,0.4-1.6,0.4c-0.8,0-1.5-0.3-2.2-0.8s-1-1.2-1-2.1c0-0.5,0.1-0.9,0.3-1.4
			l14.5-31.2c0.3-0.7,0.8-1.2,1.4-1.6c0.6-0.4,1.3-0.6,2.1-0.6s1.4,0.2,2.1,0.6c0.6,0.4,1.1,0.9,1.4,1.6l14.6,31.2
			C387,259.8,387.1,260.3,387.1,260.7z M361.8,249.4h13.9l-7-15.6L361.8,249.4z"/>
		<path class="st1" d="M422.5,261.6c-2.7-1.5-4.8-3.8-6.2-6.6c-1.4-2.9-2.2-6.3-2.2-10.1s0.7-7.2,2.2-10.1c1.4-2.9,3.5-5.1,6.2-6.6
			s5.8-2.3,9.4-2.3c2.3,0,4.5,0.3,6.5,1s3.8,1.7,5.4,3c0.5,0.4,0.8,0.7,0.9,1.1c0.2,0.4,0.3,0.9,0.3,1.4c0,0.8-0.2,1.4-0.6,1.9
			s-0.9,0.8-1.5,0.8c-0.7,0-1.4-0.2-2.2-0.7c-1.5-1.1-2.9-1.9-4.2-2.3c-1.3-0.4-2.7-0.7-4.3-0.7c-3.7,0-6.4,1.1-8.3,3.4
			c-1.9,2.3-2.8,5.6-2.8,10.1s0.9,7.8,2.8,10.1s4.6,3.4,8.3,3.4c1.5,0,2.9-0.2,4.2-0.7c1.3-0.5,2.7-1.2,4.3-2.3
			c0.4-0.2,0.7-0.4,1.1-0.5s0.7-0.2,1.1-0.2c0.6,0,1.1,0.3,1.5,0.8s0.6,1.2,0.6,1.9c0,0.5-0.1,1-0.3,1.4c-0.2,0.4-0.5,0.8-0.9,1.1
			c-1.6,1.3-3.4,2.3-5.4,3s-4.2,1-6.5,1C428.3,263.9,425.2,263.1,422.5,261.6z"/>
		<path class="st1" d="M479.8,262.8c-2.4-0.7-4.4-1.7-5.9-2.9c-0.8-0.6-1.2-1.4-1.2-2.5c0-0.7,0.2-1.4,0.7-1.9
			c0.4-0.5,1-0.8,1.6-0.8s1.4,0.2,2.2,0.7c1.5,1.1,3.1,1.9,4.7,2.4c1.7,0.5,3.5,0.7,5.5,0.7c2.6,0,4.5-0.4,5.9-1.3s2.1-2.2,2.1-3.9
			c0-1.3-0.6-2.4-1.9-3.1s-3.4-1.4-6.4-2.1c-3.1-0.7-5.6-1.4-7.5-2.3c-1.9-0.9-3.4-2-4.4-3.4s-1.5-3.1-1.5-5.2
			c0-2.2,0.6-4.1,1.8-5.8c1.2-1.7,2.9-3.1,5.1-4c2.2-1,4.7-1.4,7.4-1.4c5,0,9.1,1.3,12.3,4c0.5,0.4,0.8,0.8,1,1.1
			c0.2,0.4,0.3,0.8,0.3,1.4c0,0.7-0.2,1.4-0.7,1.9c-0.4,0.5-1,0.8-1.6,0.8c-0.4,0-0.7-0.1-1-0.2c-0.3-0.1-0.7-0.3-1.2-0.6
			c-1.4-1.1-2.8-1.8-4.2-2.3c-1.4-0.5-3-0.8-5-0.8c-2.4,0-4.3,0.5-5.7,1.4c-1.4,1-2.1,2.3-2.1,4c0,1.4,0.6,2.5,1.8,3.3
			c1.2,0.8,3.3,1.5,6.3,2.2c3.1,0.7,5.7,1.5,7.6,2.3c1.9,0.9,3.4,2,4.5,3.3c1,1.3,1.6,3,1.6,5c0,2.2-0.6,4.1-1.8,5.8
			c-1.2,1.7-2.9,3-5.1,3.9s-4.7,1.4-7.6,1.4C484.7,263.9,482.2,263.5,479.8,262.8z"/>
		<path class="st1" d="M537.6,262.8c-2.4-0.7-4.4-1.7-5.9-2.9c-0.8-0.6-1.2-1.4-1.2-2.5c0-0.7,0.2-1.4,0.7-1.9
			c0.4-0.5,1-0.8,1.6-0.8s1.4,0.2,2.2,0.7c1.5,1.1,3.1,1.9,4.7,2.4c1.7,0.5,3.5,0.7,5.5,0.7c2.6,0,4.5-0.4,5.9-1.3s2.1-2.2,2.1-3.9
			c0-1.3-0.6-2.4-1.9-3.1s-3.4-1.4-6.4-2.1c-3.1-0.7-5.6-1.4-7.5-2.3c-1.9-0.9-3.4-2-4.4-3.4s-1.5-3.1-1.5-5.2
			c0-2.2,0.6-4.1,1.8-5.8s2.9-3.1,5.1-4c2.2-1,4.7-1.4,7.4-1.4c5,0,9.1,1.3,12.3,4c0.5,0.4,0.8,0.8,1,1.1c0.2,0.4,0.3,0.8,0.3,1.4
			c0,0.7-0.2,1.4-0.7,1.9c-0.4,0.5-1,0.8-1.6,0.8c-0.4,0-0.7-0.1-1-0.2c-0.3-0.1-0.7-0.3-1.2-0.6c-1.4-1.1-2.8-1.8-4.2-2.3
			s-3-0.8-5-0.8c-2.4,0-4.3,0.5-5.7,1.4c-1.4,1-2.1,2.3-2.1,4c0,1.4,0.6,2.5,1.8,3.3s3.3,1.5,6.3,2.2c3.1,0.7,5.7,1.5,7.6,2.3
			c1.9,0.9,3.4,2,4.5,3.3c1,1.3,1.6,3,1.6,5c0,2.2-0.6,4.1-1.8,5.8s-2.9,3-5.1,3.9c-2.2,0.9-4.7,1.4-7.6,1.4
			C542.6,263.9,540,263.5,537.6,262.8z"/>
	</g>
	<g>
		<path class="st1" d="M282.8,113.9v69.2L223,148.3L282.8,113.9z"/>
		<polygon class="st1" points="220.9,144.2 220.9,75.3 280.7,109.7 		"/>
		<polygon class="st0" points="350,144.2 290.5,109.7 350,75.3 		"/>
		<polygon class="st2" points="282.8,36.1 282.8,105.4 223,70.6 		"/>
		<polygon class="st2" points="347.5,70.6 288,105.4 288,36.1 		"/>
		<polygon class="st0" points="347.5,148.3 288,183.1 288,113.9 		"/>
	</g>
</g>
</svg>
